<?xml version="1.0" encoding="UTF-8" standalone="no"?>
<!DOCTYPE svg PUBLIC "-//W3C//DTD SVG 1.1//EN" "http://www.w3.org/Graphics/SVG/1.1/DTD/svg11.dtd">
<svg width="100%" height="100%" viewBox="0 0 256 256" version="1.1" xmlns="http://www.w3.org/2000/svg" xmlns:xlink="http://www.w3.org/1999/xlink" xml:space="preserve" xmlns:serif="http://www.serif.com/" style="fill-rule:evenodd;clip-rule:evenodd;stroke-linejoin:round;stroke-miterlimit:2;">
    <g transform="matrix(8.53333,0,0,8.53333,-8.53333,-8.53333)">
        <rect x="1" y="1" width="30" height="30" style="fill:rgb(22,16,50);"/>
    </g>
    <g transform="matrix(-0.671519,-8.22376e-17,8.22376e-17,-0.671519,223.936,224.062)">
        <path d="M142.959,0C64.131,0 0,64.132 0,142.96C0,221.788 64.131,285.919 142.959,285.919C221.787,285.919 285.919,221.788 285.919,142.96C285.919,64.132 221.787,0 142.959,0ZM142.959,260.919L142.959,142.96L142.959,25C208.002,25 260.919,77.917 260.919,142.96C260.919,208.003 208.002,260.919 142.959,260.919Z" style="fill:rgb(192,192,192);fill-rule:nonzero;"/>
    </g>
</svg>